<mxfile host="app.diagrams.net" modified="2023-06-24T02:01:04.913Z" agent="Mozilla/5.0 (Macintosh; Intel Mac OS X 10_15_7) AppleWebKit/537.36 (KHTML, like Gecko) Chrome/114.0.0.0 Safari/537.36" etag="WziIhNSKh4k9oiEe_r-a" version="21.3.2" type="github">
  <diagram name="第 1 页" id="cnBMpmwu3O2mLDWDtyyw">
    <mxGraphModel dx="984" dy="1741" grid="1" gridSize="10" guides="1" tooltips="1" connect="1" arrows="1" fold="1" page="1" pageScale="1" pageWidth="827" pageHeight="1169" math="0" shadow="0">
      <root>
        <mxCell id="0" />
        <mxCell id="1" parent="0" />
        <mxCell id="d8EzzS2z0Zi32wdxlMhy-1" style="edgeStyle=orthogonalEdgeStyle;rounded=0;orthogonalLoop=1;jettySize=auto;html=1;exitX=1;exitY=0.5;exitDx=0;exitDy=0;entryX=0;entryY=0.5;entryDx=0;entryDy=0;" parent="1" source="d8EzzS2z0Zi32wdxlMhy-12" target="d8EzzS2z0Zi32wdxlMhy-16" edge="1">
          <mxGeometry relative="1" as="geometry" />
        </mxCell>
        <mxCell id="d8EzzS2z0Zi32wdxlMhy-2" style="edgeStyle=orthogonalEdgeStyle;rounded=0;orthogonalLoop=1;jettySize=auto;html=1;exitX=1;exitY=0.5;exitDx=0;exitDy=0;entryX=0;entryY=0.5;entryDx=0;entryDy=0;" parent="1" source="d8EzzS2z0Zi32wdxlMhy-12" target="d8EzzS2z0Zi32wdxlMhy-15" edge="1">
          <mxGeometry relative="1" as="geometry" />
        </mxCell>
        <mxCell id="d8EzzS2z0Zi32wdxlMhy-3" style="edgeStyle=orthogonalEdgeStyle;rounded=0;orthogonalLoop=1;jettySize=auto;html=1;exitX=1;exitY=0.5;exitDx=0;exitDy=0;entryX=0;entryY=0.5;entryDx=0;entryDy=0;" parent="1" source="d8EzzS2z0Zi32wdxlMhy-12" target="d8EzzS2z0Zi32wdxlMhy-19" edge="1">
          <mxGeometry relative="1" as="geometry" />
        </mxCell>
        <mxCell id="d8EzzS2z0Zi32wdxlMhy-4" style="edgeStyle=orthogonalEdgeStyle;rounded=0;orthogonalLoop=1;jettySize=auto;html=1;exitX=1;exitY=0.5;exitDx=0;exitDy=0;entryX=0;entryY=0.5;entryDx=0;entryDy=0;" parent="1" source="d8EzzS2z0Zi32wdxlMhy-12" target="d8EzzS2z0Zi32wdxlMhy-22" edge="1">
          <mxGeometry relative="1" as="geometry">
            <mxPoint x="230" y="-690" as="targetPoint" />
          </mxGeometry>
        </mxCell>
        <mxCell id="d8EzzS2z0Zi32wdxlMhy-6" style="edgeStyle=orthogonalEdgeStyle;rounded=0;orthogonalLoop=1;jettySize=auto;html=1;exitX=1;exitY=0.5;exitDx=0;exitDy=0;entryX=0;entryY=0.5;entryDx=0;entryDy=0;" parent="1" source="d8EzzS2z0Zi32wdxlMhy-12" target="d8EzzS2z0Zi32wdxlMhy-28" edge="1">
          <mxGeometry relative="1" as="geometry" />
        </mxCell>
        <mxCell id="d8EzzS2z0Zi32wdxlMhy-7" style="edgeStyle=orthogonalEdgeStyle;rounded=0;orthogonalLoop=1;jettySize=auto;html=1;exitX=1;exitY=0.5;exitDx=0;exitDy=0;entryX=0;entryY=0.5;entryDx=0;entryDy=0;" parent="1" source="d8EzzS2z0Zi32wdxlMhy-38" target="d8EzzS2z0Zi32wdxlMhy-32" edge="1">
          <mxGeometry relative="1" as="geometry">
            <mxPoint x="420" y="-510" as="sourcePoint" />
          </mxGeometry>
        </mxCell>
        <mxCell id="d8EzzS2z0Zi32wdxlMhy-9" style="edgeStyle=orthogonalEdgeStyle;rounded=0;orthogonalLoop=1;jettySize=auto;html=1;exitX=1;exitY=0.5;exitDx=0;exitDy=0;entryX=0;entryY=0.5;entryDx=0;entryDy=0;fontSize=20;" parent="1" source="d8EzzS2z0Zi32wdxlMhy-12" target="d8EzzS2z0Zi32wdxlMhy-38" edge="1">
          <mxGeometry relative="1" as="geometry" />
        </mxCell>
        <mxCell id="d8EzzS2z0Zi32wdxlMhy-10" style="edgeStyle=orthogonalEdgeStyle;rounded=0;orthogonalLoop=1;jettySize=auto;html=1;exitX=1;exitY=0.5;exitDx=0;exitDy=0;entryX=0;entryY=0.5;entryDx=0;entryDy=0;" parent="1" source="d8EzzS2z0Zi32wdxlMhy-12" target="d8EzzS2z0Zi32wdxlMhy-42" edge="1">
          <mxGeometry relative="1" as="geometry" />
        </mxCell>
        <mxCell id="d8EzzS2z0Zi32wdxlMhy-11" style="edgeStyle=orthogonalEdgeStyle;rounded=0;orthogonalLoop=1;jettySize=auto;html=1;exitX=1;exitY=0.5;exitDx=0;exitDy=0;entryX=0;entryY=0.5;entryDx=0;entryDy=0;fontSize=17;" parent="1" source="d8EzzS2z0Zi32wdxlMhy-12" target="d8EzzS2z0Zi32wdxlMhy-46" edge="1">
          <mxGeometry relative="1" as="geometry" />
        </mxCell>
        <mxCell id="d8EzzS2z0Zi32wdxlMhy-57" style="edgeStyle=orthogonalEdgeStyle;rounded=0;orthogonalLoop=1;jettySize=auto;html=1;exitX=1;exitY=0.5;exitDx=0;exitDy=0;entryX=0;entryY=0.5;entryDx=0;entryDy=0;" parent="1" source="d8EzzS2z0Zi32wdxlMhy-12" target="d8EzzS2z0Zi32wdxlMhy-53" edge="1">
          <mxGeometry relative="1" as="geometry" />
        </mxCell>
        <mxCell id="d8EzzS2z0Zi32wdxlMhy-60" style="edgeStyle=orthogonalEdgeStyle;rounded=0;orthogonalLoop=1;jettySize=auto;html=1;exitX=1;exitY=0.5;exitDx=0;exitDy=0;entryX=0;entryY=0.5;entryDx=0;entryDy=0;" parent="1" source="d8EzzS2z0Zi32wdxlMhy-12" target="d8EzzS2z0Zi32wdxlMhy-59" edge="1">
          <mxGeometry relative="1" as="geometry" />
        </mxCell>
        <mxCell id="d8EzzS2z0Zi32wdxlMhy-12" value="中医中药方剂&lt;br&gt;养生医案&lt;br&gt;大数据平台" style="rounded=1;whiteSpace=wrap;html=1;fontSize=15;fillColor=#008a00;strokeColor=#005700;fontColor=#ffffff;" parent="1" vertex="1">
          <mxGeometry x="100" y="-840" width="120" height="80" as="geometry" />
        </mxCell>
        <mxCell id="d8EzzS2z0Zi32wdxlMhy-13" style="edgeStyle=orthogonalEdgeStyle;rounded=0;orthogonalLoop=1;jettySize=auto;html=1;exitX=1;exitY=0.5;exitDx=0;exitDy=0;entryX=0;entryY=0.5;entryDx=0;entryDy=0;" parent="1" source="d8EzzS2z0Zi32wdxlMhy-15" target="d8EzzS2z0Zi32wdxlMhy-20" edge="1">
          <mxGeometry relative="1" as="geometry" />
        </mxCell>
        <mxCell id="d8EzzS2z0Zi32wdxlMhy-14" style="edgeStyle=orthogonalEdgeStyle;rounded=0;orthogonalLoop=1;jettySize=auto;html=1;exitX=1;exitY=0.5;exitDx=0;exitDy=0;entryX=0;entryY=0.5;entryDx=0;entryDy=0;fontSize=17;" parent="1" source="d8EzzS2z0Zi32wdxlMhy-15" target="d8EzzS2z0Zi32wdxlMhy-44" edge="1">
          <mxGeometry relative="1" as="geometry" />
        </mxCell>
        <mxCell id="d8EzzS2z0Zi32wdxlMhy-15" value="首页" style="rounded=1;whiteSpace=wrap;html=1;fontSize=15;fillColor=#d5e8d4;strokeColor=#82b366;" parent="1" vertex="1">
          <mxGeometry x="270" y="-1040" width="120" height="40" as="geometry" />
        </mxCell>
        <mxCell id="d8EzzS2z0Zi32wdxlMhy-16" value="登录与注册" style="rounded=1;whiteSpace=wrap;html=1;fontSize=15;fillColor=#d5e8d4;strokeColor=#82b366;" parent="1" vertex="1">
          <mxGeometry x="270" y="-1100" width="120" height="40" as="geometry" />
        </mxCell>
        <mxCell id="d8EzzS2z0Zi32wdxlMhy-17" style="edgeStyle=orthogonalEdgeStyle;rounded=0;orthogonalLoop=1;jettySize=auto;html=1;exitX=1;exitY=0.5;exitDx=0;exitDy=0;entryX=0;entryY=0.5;entryDx=0;entryDy=0;" parent="1" source="d8EzzS2z0Zi32wdxlMhy-19" target="d8EzzS2z0Zi32wdxlMhy-26" edge="1">
          <mxGeometry relative="1" as="geometry" />
        </mxCell>
        <mxCell id="d8EzzS2z0Zi32wdxlMhy-18" style="edgeStyle=orthogonalEdgeStyle;rounded=0;orthogonalLoop=1;jettySize=auto;html=1;exitX=1;exitY=0.5;exitDx=0;exitDy=0;entryX=0;entryY=0.5;entryDx=0;entryDy=0;fontSize=15;" parent="1" source="d8EzzS2z0Zi32wdxlMhy-19" target="d8EzzS2z0Zi32wdxlMhy-43" edge="1">
          <mxGeometry relative="1" as="geometry" />
        </mxCell>
        <mxCell id="d8EzzS2z0Zi32wdxlMhy-19" value="可视化" style="rounded=1;whiteSpace=wrap;html=1;fontSize=15;fillColor=#d5e8d4;strokeColor=#82b366;" parent="1" vertex="1">
          <mxGeometry x="270" y="-737.5" width="120" height="40" as="geometry" />
        </mxCell>
        <mxCell id="d8EzzS2z0Zi32wdxlMhy-20" value="方剂卡片" style="rounded=1;whiteSpace=wrap;html=1;fontSize=15;fillColor=#d5e8d4;strokeColor=#82b366;" parent="1" vertex="1">
          <mxGeometry x="507.5" y="-1040" width="120" height="40" as="geometry" />
        </mxCell>
        <mxCell id="d8EzzS2z0Zi32wdxlMhy-21" style="edgeStyle=orthogonalEdgeStyle;rounded=0;orthogonalLoop=1;jettySize=auto;html=1;exitX=1;exitY=0.5;exitDx=0;exitDy=0;entryX=0;entryY=0.5;entryDx=0;entryDy=0;" parent="1" source="d8EzzS2z0Zi32wdxlMhy-22" target="d8EzzS2z0Zi32wdxlMhy-24" edge="1">
          <mxGeometry relative="1" as="geometry" />
        </mxCell>
        <mxCell id="d8EzzS2z0Zi32wdxlMhy-22" value="词云" style="rounded=1;whiteSpace=wrap;html=1;fontSize=15;fillColor=#d5e8d4;strokeColor=#82b366;" parent="1" vertex="1">
          <mxGeometry x="270" y="-650" width="120" height="40" as="geometry" />
        </mxCell>
        <mxCell id="d8EzzS2z0Zi32wdxlMhy-24" value="[主治症候] 词云" style="rounded=1;whiteSpace=wrap;html=1;fontSize=15;fillColor=#d5e8d4;strokeColor=#82b366;" parent="1" vertex="1">
          <mxGeometry x="450" y="-650" width="145" height="40" as="geometry" />
        </mxCell>
        <mxCell id="d8EzzS2z0Zi32wdxlMhy-25" style="edgeStyle=orthogonalEdgeStyle;rounded=0;orthogonalLoop=1;jettySize=auto;html=1;exitX=1;exitY=0.5;exitDx=0;exitDy=0;entryX=0;entryY=0.5;entryDx=0;entryDy=0;" parent="1" source="d8EzzS2z0Zi32wdxlMhy-26" target="d8EzzS2z0Zi32wdxlMhy-33" edge="1">
          <mxGeometry relative="1" as="geometry" />
        </mxCell>
        <mxCell id="d8EzzS2z0Zi32wdxlMhy-63" style="edgeStyle=orthogonalEdgeStyle;rounded=0;orthogonalLoop=1;jettySize=auto;html=1;exitX=1;exitY=0.5;exitDx=0;exitDy=0;entryX=0;entryY=0.5;entryDx=0;entryDy=0;" parent="1" source="d8EzzS2z0Zi32wdxlMhy-26" target="d8EzzS2z0Zi32wdxlMhy-62" edge="1">
          <mxGeometry relative="1" as="geometry" />
        </mxCell>
        <mxCell id="d8EzzS2z0Zi32wdxlMhy-26" value="Echarts分析大屏" style="rounded=1;whiteSpace=wrap;html=1;fontSize=15;fillColor=#d5e8d4;strokeColor=#82b366;" parent="1" vertex="1">
          <mxGeometry x="455" y="-777.5" width="120" height="40" as="geometry" />
        </mxCell>
        <mxCell id="d8EzzS2z0Zi32wdxlMhy-27" value="" style="edgeStyle=orthogonalEdgeStyle;rounded=0;orthogonalLoop=1;jettySize=auto;html=1;entryX=0.5;entryY=1;entryDx=0;entryDy=0;" parent="1" source="d8EzzS2z0Zi32wdxlMhy-28" target="d8EzzS2z0Zi32wdxlMhy-20" edge="1">
          <mxGeometry relative="1" as="geometry">
            <mxPoint x="460" y="-980" as="targetPoint" />
          </mxGeometry>
        </mxCell>
        <mxCell id="d8EzzS2z0Zi32wdxlMhy-28" value="方剂搜索" style="rounded=1;whiteSpace=wrap;html=1;fontSize=15;fillColor=#d5e8d4;strokeColor=#82b366;" parent="1" vertex="1">
          <mxGeometry x="270" y="-980" width="120" height="40" as="geometry" />
        </mxCell>
        <mxCell id="d8EzzS2z0Zi32wdxlMhy-31" style="edgeStyle=orthogonalEdgeStyle;rounded=0;orthogonalLoop=1;jettySize=auto;html=1;exitX=1;exitY=0.5;exitDx=0;exitDy=0;entryX=0;entryY=0.5;entryDx=0;entryDy=0;" parent="1" source="d8EzzS2z0Zi32wdxlMhy-32" target="d8EzzS2z0Zi32wdxlMhy-34" edge="1">
          <mxGeometry relative="1" as="geometry" />
        </mxCell>
        <mxCell id="d8EzzS2z0Zi32wdxlMhy-32" value="修改个人信息" style="rounded=1;whiteSpace=wrap;html=1;fontSize=15;fillColor=#d5e8d4;strokeColor=#82b366;" parent="1" vertex="1">
          <mxGeometry x="462.5" y="-510" width="120" height="40" as="geometry" />
        </mxCell>
        <mxCell id="d8EzzS2z0Zi32wdxlMhy-33" value="环形图、柱状图、饼图、折线图等" style="rounded=1;whiteSpace=wrap;html=1;fontSize=15;fillColor=#d5e8d4;strokeColor=#82b366;" parent="1" vertex="1">
          <mxGeometry x="617.5" y="-780" width="145" height="45" as="geometry" />
        </mxCell>
        <mxCell id="d8EzzS2z0Zi32wdxlMhy-34" value="阿里短信验证码修改密码" style="rounded=1;whiteSpace=wrap;html=1;fontSize=15;fillColor=#fff2cc;strokeColor=#d6b656;" parent="1" vertex="1">
          <mxGeometry x="630" y="-510" width="120" height="40" as="geometry" />
        </mxCell>
        <mxCell id="d8EzzS2z0Zi32wdxlMhy-38" value="设置" style="rounded=1;whiteSpace=wrap;html=1;fontSize=15;fillColor=#d5e8d4;strokeColor=#82b366;" parent="1" vertex="1">
          <mxGeometry x="270" y="-510" width="120" height="40" as="geometry" />
        </mxCell>
        <mxCell id="d8EzzS2z0Zi32wdxlMhy-39" style="edgeStyle=orthogonalEdgeStyle;rounded=0;orthogonalLoop=1;jettySize=auto;html=1;exitX=1;exitY=0.5;exitDx=0;exitDy=0;entryX=0;entryY=0.5;entryDx=0;entryDy=0;fontSize=17;" parent="1" source="d8EzzS2z0Zi32wdxlMhy-40" target="d8EzzS2z0Zi32wdxlMhy-51" edge="1">
          <mxGeometry relative="1" as="geometry" />
        </mxCell>
        <mxCell id="d8EzzS2z0Zi32wdxlMhy-40" value="交互式的知识图谱" style="rounded=1;whiteSpace=wrap;html=1;fontSize=15;fillColor=#d5e8d4;strokeColor=#82b366;" parent="1" vertex="1">
          <mxGeometry x="450" y="-586.5" width="140" height="40" as="geometry" />
        </mxCell>
        <mxCell id="d8EzzS2z0Zi32wdxlMhy-41" style="edgeStyle=orthogonalEdgeStyle;rounded=0;orthogonalLoop=1;jettySize=auto;html=1;exitX=1;exitY=0.5;exitDx=0;exitDy=0;entryX=0;entryY=0.5;entryDx=0;entryDy=0;" parent="1" source="d8EzzS2z0Zi32wdxlMhy-42" target="d8EzzS2z0Zi32wdxlMhy-40" edge="1">
          <mxGeometry relative="1" as="geometry" />
        </mxCell>
        <mxCell id="d8EzzS2z0Zi32wdxlMhy-42" value="&amp;nbsp;neo4j知识图谱" style="rounded=1;whiteSpace=wrap;html=1;fontSize=15;fillColor=#d5e8d4;strokeColor=#82b366;" parent="1" vertex="1">
          <mxGeometry x="270" y="-586.5" width="120" height="40" as="geometry" />
        </mxCell>
        <mxCell id="d8EzzS2z0Zi32wdxlMhy-43" value="中药关键词提取、临床关键词分析、&lt;br&gt;中医养生关键词频分析" style="rounded=1;whiteSpace=wrap;html=1;fontSize=15;fillColor=#d5e8d4;strokeColor=#82b366;" parent="1" vertex="1">
          <mxGeometry x="455" y="-707.5" width="315" height="40" as="geometry" />
        </mxCell>
        <mxCell id="d8EzzS2z0Zi32wdxlMhy-44" value="轮播图" style="rounded=1;whiteSpace=wrap;html=1;fontSize=15;fillColor=#f5f5f5;strokeColor=#666666;fontColor=#333333;" parent="1" vertex="1">
          <mxGeometry x="507.5" y="-1110" width="120" height="40" as="geometry" />
        </mxCell>
        <mxCell id="d8EzzS2z0Zi32wdxlMhy-45" style="edgeStyle=orthogonalEdgeStyle;rounded=0;orthogonalLoop=1;jettySize=auto;html=1;exitX=1;exitY=0.5;exitDx=0;exitDy=0;entryX=0;entryY=0.5;entryDx=0;entryDy=0;fontSize=17;" parent="1" source="d8EzzS2z0Zi32wdxlMhy-46" target="d8EzzS2z0Zi32wdxlMhy-48" edge="1">
          <mxGeometry relative="1" as="geometry" />
        </mxCell>
        <mxCell id="d8EzzS2z0Zi32wdxlMhy-46" value="药材搜索" style="rounded=1;whiteSpace=wrap;html=1;fontSize=15;fillColor=#d5e8d4;strokeColor=#82b366;" parent="1" vertex="1">
          <mxGeometry x="270" y="-920" width="120" height="40" as="geometry" />
        </mxCell>
        <mxCell id="d8EzzS2z0Zi32wdxlMhy-47" style="edgeStyle=orthogonalEdgeStyle;rounded=0;orthogonalLoop=1;jettySize=auto;html=1;exitX=1;exitY=0.5;exitDx=0;exitDy=0;entryX=0;entryY=0.5;entryDx=0;entryDy=0;fontSize=17;" parent="1" source="d8EzzS2z0Zi32wdxlMhy-48" target="d8EzzS2z0Zi32wdxlMhy-49" edge="1">
          <mxGeometry relative="1" as="geometry" />
        </mxCell>
        <mxCell id="d8EzzS2z0Zi32wdxlMhy-48" value="药材卡片" style="rounded=1;whiteSpace=wrap;html=1;fontSize=15;fillColor=#d5e8d4;strokeColor=#82b366;" parent="1" vertex="1">
          <mxGeometry x="431.5" y="-920" width="120" height="40" as="geometry" />
        </mxCell>
        <mxCell id="d8EzzS2z0Zi32wdxlMhy-49" value="详情" style="rounded=1;whiteSpace=wrap;html=1;fontSize=15;fillColor=#d5e8d4;strokeColor=#82b366;" parent="1" vertex="1">
          <mxGeometry x="590" y="-920" width="120" height="40" as="geometry" />
        </mxCell>
        <mxCell id="d8EzzS2z0Zi32wdxlMhy-51" value="升级版" style="rounded=1;whiteSpace=wrap;html=1;fontSize=15;fillColor=#1ba1e2;strokeColor=#006EAF;fontColor=#ffffff;" parent="1" vertex="1">
          <mxGeometry x="630" y="-586.5" width="110" height="40" as="geometry" />
        </mxCell>
        <mxCell id="d8EzzS2z0Zi32wdxlMhy-52" style="edgeStyle=orthogonalEdgeStyle;rounded=0;orthogonalLoop=1;jettySize=auto;html=1;exitX=1;exitY=0.5;exitDx=0;exitDy=0;entryX=0;entryY=0.5;entryDx=0;entryDy=0;fontSize=17;" parent="1" source="d8EzzS2z0Zi32wdxlMhy-53" edge="1">
          <mxGeometry relative="1" as="geometry">
            <mxPoint x="433" y="-830" as="targetPoint" />
          </mxGeometry>
        </mxCell>
        <mxCell id="d8EzzS2z0Zi32wdxlMhy-53" value="养生知识" style="rounded=1;whiteSpace=wrap;html=1;fontSize=15;fillColor=#d5e8d4;strokeColor=#82b366;" parent="1" vertex="1">
          <mxGeometry x="270" y="-850" width="120" height="40" as="geometry" />
        </mxCell>
        <mxCell id="d8EzzS2z0Zi32wdxlMhy-56" value="详情" style="rounded=1;whiteSpace=wrap;html=1;fontSize=15;fillColor=#d5e8d4;strokeColor=#82b366;" parent="1" vertex="1">
          <mxGeometry x="431.5" y="-850" width="120" height="40" as="geometry" />
        </mxCell>
        <mxCell id="d8EzzS2z0Zi32wdxlMhy-59" value="医案精选" style="rounded=1;whiteSpace=wrap;html=1;fontSize=15;fillColor=#d5e8d4;strokeColor=#82b366;" parent="1" vertex="1">
          <mxGeometry x="270" y="-790" width="120" height="40" as="geometry" />
        </mxCell>
        <mxCell id="d8EzzS2z0Zi32wdxlMhy-62" value="百度中医高校热力图" style="rounded=1;whiteSpace=wrap;html=1;fontSize=15;fillColor=#d5e8d4;strokeColor=#82b366;" parent="1" vertex="1">
          <mxGeometry x="617.5" y="-840" width="145" height="45" as="geometry" />
        </mxCell>
        <mxCell id="D8rwGO-gOKSLSICI7qhx-1" style="edgeStyle=orthogonalEdgeStyle;rounded=0;orthogonalLoop=1;jettySize=auto;html=1;exitX=1;exitY=0.5;exitDx=0;exitDy=0;entryX=0;entryY=0.5;entryDx=0;entryDy=0;" parent="1" source="D8rwGO-gOKSLSICI7qhx-12" target="D8rwGO-gOKSLSICI7qhx-16" edge="1">
          <mxGeometry relative="1" as="geometry" />
        </mxCell>
        <mxCell id="D8rwGO-gOKSLSICI7qhx-2" style="edgeStyle=orthogonalEdgeStyle;rounded=0;orthogonalLoop=1;jettySize=auto;html=1;exitX=1;exitY=0.5;exitDx=0;exitDy=0;entryX=0;entryY=0.5;entryDx=0;entryDy=0;" parent="1" source="D8rwGO-gOKSLSICI7qhx-12" target="D8rwGO-gOKSLSICI7qhx-15" edge="1">
          <mxGeometry relative="1" as="geometry" />
        </mxCell>
        <mxCell id="D8rwGO-gOKSLSICI7qhx-3" style="edgeStyle=orthogonalEdgeStyle;rounded=0;orthogonalLoop=1;jettySize=auto;html=1;exitX=1;exitY=0.5;exitDx=0;exitDy=0;entryX=0;entryY=0.5;entryDx=0;entryDy=0;" parent="1" source="D8rwGO-gOKSLSICI7qhx-12" target="D8rwGO-gOKSLSICI7qhx-19" edge="1">
          <mxGeometry relative="1" as="geometry" />
        </mxCell>
        <mxCell id="D8rwGO-gOKSLSICI7qhx-4" style="edgeStyle=orthogonalEdgeStyle;rounded=0;orthogonalLoop=1;jettySize=auto;html=1;exitX=1;exitY=0.5;exitDx=0;exitDy=0;entryX=0;entryY=0.5;entryDx=0;entryDy=0;" parent="1" source="D8rwGO-gOKSLSICI7qhx-12" target="D8rwGO-gOKSLSICI7qhx-22" edge="1">
          <mxGeometry relative="1" as="geometry">
            <mxPoint x="1010" y="-690" as="targetPoint" />
          </mxGeometry>
        </mxCell>
        <mxCell id="D8rwGO-gOKSLSICI7qhx-5" style="edgeStyle=orthogonalEdgeStyle;rounded=0;orthogonalLoop=1;jettySize=auto;html=1;exitX=1;exitY=0.5;exitDx=0;exitDy=0;entryX=0;entryY=0.5;entryDx=0;entryDy=0;" parent="1" source="D8rwGO-gOKSLSICI7qhx-12" target="D8rwGO-gOKSLSICI7qhx-28" edge="1">
          <mxGeometry relative="1" as="geometry" />
        </mxCell>
        <mxCell id="D8rwGO-gOKSLSICI7qhx-6" style="edgeStyle=orthogonalEdgeStyle;rounded=0;orthogonalLoop=1;jettySize=auto;html=1;exitX=1;exitY=0.5;exitDx=0;exitDy=0;entryX=0;entryY=0.5;entryDx=0;entryDy=0;" parent="1" source="D8rwGO-gOKSLSICI7qhx-33" target="D8rwGO-gOKSLSICI7qhx-30" edge="1">
          <mxGeometry relative="1" as="geometry">
            <mxPoint x="1200" y="-510" as="sourcePoint" />
          </mxGeometry>
        </mxCell>
        <mxCell id="D8rwGO-gOKSLSICI7qhx-7" style="edgeStyle=orthogonalEdgeStyle;rounded=0;orthogonalLoop=1;jettySize=auto;html=1;exitX=1;exitY=0.5;exitDx=0;exitDy=0;entryX=0;entryY=0.5;entryDx=0;entryDy=0;fontSize=20;" parent="1" source="D8rwGO-gOKSLSICI7qhx-12" target="D8rwGO-gOKSLSICI7qhx-33" edge="1">
          <mxGeometry relative="1" as="geometry" />
        </mxCell>
        <mxCell id="D8rwGO-gOKSLSICI7qhx-8" style="edgeStyle=orthogonalEdgeStyle;rounded=0;orthogonalLoop=1;jettySize=auto;html=1;exitX=1;exitY=0.5;exitDx=0;exitDy=0;entryX=0;entryY=0.5;entryDx=0;entryDy=0;" parent="1" source="D8rwGO-gOKSLSICI7qhx-12" target="D8rwGO-gOKSLSICI7qhx-37" edge="1">
          <mxGeometry relative="1" as="geometry" />
        </mxCell>
        <mxCell id="D8rwGO-gOKSLSICI7qhx-9" style="edgeStyle=orthogonalEdgeStyle;rounded=0;orthogonalLoop=1;jettySize=auto;html=1;exitX=1;exitY=0.5;exitDx=0;exitDy=0;entryX=0;entryY=0.5;entryDx=0;entryDy=0;fontSize=17;" parent="1" source="D8rwGO-gOKSLSICI7qhx-12" target="D8rwGO-gOKSLSICI7qhx-41" edge="1">
          <mxGeometry relative="1" as="geometry" />
        </mxCell>
        <mxCell id="5hxXH1iy_aXLQU6aHfeA-10" style="edgeStyle=orthogonalEdgeStyle;rounded=0;orthogonalLoop=1;jettySize=auto;html=1;exitX=1;exitY=0.5;exitDx=0;exitDy=0;entryX=0;entryY=0.5;entryDx=0;entryDy=0;" edge="1" parent="1" source="D8rwGO-gOKSLSICI7qhx-12" target="5hxXH1iy_aXLQU6aHfeA-4">
          <mxGeometry relative="1" as="geometry" />
        </mxCell>
        <mxCell id="D8rwGO-gOKSLSICI7qhx-12" value="中医中药方剂&lt;br&gt;知识图谱问答&lt;br&gt;大数据平台" style="rounded=1;whiteSpace=wrap;html=1;fontSize=15;fillColor=#008a00;strokeColor=#005700;fontColor=#ffffff;" parent="1" vertex="1">
          <mxGeometry x="880" y="-840" width="120" height="80" as="geometry" />
        </mxCell>
        <mxCell id="D8rwGO-gOKSLSICI7qhx-13" style="edgeStyle=orthogonalEdgeStyle;rounded=0;orthogonalLoop=1;jettySize=auto;html=1;exitX=1;exitY=0.5;exitDx=0;exitDy=0;entryX=0;entryY=0.5;entryDx=0;entryDy=0;" parent="1" source="D8rwGO-gOKSLSICI7qhx-15" target="D8rwGO-gOKSLSICI7qhx-20" edge="1">
          <mxGeometry relative="1" as="geometry" />
        </mxCell>
        <mxCell id="D8rwGO-gOKSLSICI7qhx-14" style="edgeStyle=orthogonalEdgeStyle;rounded=0;orthogonalLoop=1;jettySize=auto;html=1;exitX=1;exitY=0.5;exitDx=0;exitDy=0;entryX=0;entryY=0.5;entryDx=0;entryDy=0;fontSize=17;" parent="1" source="D8rwGO-gOKSLSICI7qhx-15" target="D8rwGO-gOKSLSICI7qhx-39" edge="1">
          <mxGeometry relative="1" as="geometry" />
        </mxCell>
        <mxCell id="D8rwGO-gOKSLSICI7qhx-15" value="首页" style="rounded=1;whiteSpace=wrap;html=1;fontSize=15;fillColor=#d5e8d4;strokeColor=#82b366;" parent="1" vertex="1">
          <mxGeometry x="1050" y="-1040" width="120" height="40" as="geometry" />
        </mxCell>
        <mxCell id="D8rwGO-gOKSLSICI7qhx-16" value="登录与注册" style="rounded=1;whiteSpace=wrap;html=1;fontSize=15;fillColor=#d5e8d4;strokeColor=#82b366;" parent="1" vertex="1">
          <mxGeometry x="1050" y="-1100" width="120" height="40" as="geometry" />
        </mxCell>
        <mxCell id="D8rwGO-gOKSLSICI7qhx-17" style="edgeStyle=orthogonalEdgeStyle;rounded=0;orthogonalLoop=1;jettySize=auto;html=1;exitX=1;exitY=0.5;exitDx=0;exitDy=0;entryX=0;entryY=0.5;entryDx=0;entryDy=0;" parent="1" source="D8rwGO-gOKSLSICI7qhx-19" target="D8rwGO-gOKSLSICI7qhx-26" edge="1">
          <mxGeometry relative="1" as="geometry" />
        </mxCell>
        <mxCell id="D8rwGO-gOKSLSICI7qhx-18" style="edgeStyle=orthogonalEdgeStyle;rounded=0;orthogonalLoop=1;jettySize=auto;html=1;exitX=1;exitY=0.5;exitDx=0;exitDy=0;entryX=0;entryY=0.5;entryDx=0;entryDy=0;fontSize=15;" parent="1" source="D8rwGO-gOKSLSICI7qhx-19" target="D8rwGO-gOKSLSICI7qhx-38" edge="1">
          <mxGeometry relative="1" as="geometry" />
        </mxCell>
        <mxCell id="D8rwGO-gOKSLSICI7qhx-19" value="可视化" style="rounded=1;whiteSpace=wrap;html=1;fontSize=15;fillColor=#d5e8d4;strokeColor=#82b366;" parent="1" vertex="1">
          <mxGeometry x="1050" y="-820" width="120" height="40" as="geometry" />
        </mxCell>
        <mxCell id="D8rwGO-gOKSLSICI7qhx-20" value="方剂卡片" style="rounded=1;whiteSpace=wrap;html=1;fontSize=15;fillColor=#d5e8d4;strokeColor=#82b366;" parent="1" vertex="1">
          <mxGeometry x="1287.5" y="-1040" width="120" height="40" as="geometry" />
        </mxCell>
        <mxCell id="D8rwGO-gOKSLSICI7qhx-21" style="edgeStyle=orthogonalEdgeStyle;rounded=0;orthogonalLoop=1;jettySize=auto;html=1;exitX=1;exitY=0.5;exitDx=0;exitDy=0;entryX=0;entryY=0.5;entryDx=0;entryDy=0;" parent="1" source="D8rwGO-gOKSLSICI7qhx-22" target="D8rwGO-gOKSLSICI7qhx-23" edge="1">
          <mxGeometry relative="1" as="geometry" />
        </mxCell>
        <mxCell id="D8rwGO-gOKSLSICI7qhx-22" value="词云" style="rounded=1;whiteSpace=wrap;html=1;fontSize=15;fillColor=#d5e8d4;strokeColor=#82b366;" parent="1" vertex="1">
          <mxGeometry x="1050" y="-735" width="120" height="40" as="geometry" />
        </mxCell>
        <mxCell id="D8rwGO-gOKSLSICI7qhx-23" value="[主治症候] 词云" style="rounded=1;whiteSpace=wrap;html=1;fontSize=15;fillColor=#d5e8d4;strokeColor=#82b366;" parent="1" vertex="1">
          <mxGeometry x="1230" y="-735" width="145" height="40" as="geometry" />
        </mxCell>
        <mxCell id="D8rwGO-gOKSLSICI7qhx-24" style="edgeStyle=orthogonalEdgeStyle;rounded=0;orthogonalLoop=1;jettySize=auto;html=1;exitX=1;exitY=0.5;exitDx=0;exitDy=0;entryX=0;entryY=0.5;entryDx=0;entryDy=0;" parent="1" source="D8rwGO-gOKSLSICI7qhx-26" target="D8rwGO-gOKSLSICI7qhx-31" edge="1">
          <mxGeometry relative="1" as="geometry" />
        </mxCell>
        <mxCell id="D8rwGO-gOKSLSICI7qhx-26" value="Echarts分析大屏" style="rounded=1;whiteSpace=wrap;html=1;fontSize=15;fillColor=#d5e8d4;strokeColor=#82b366;" parent="1" vertex="1">
          <mxGeometry x="1235" y="-860" width="120" height="40" as="geometry" />
        </mxCell>
        <mxCell id="D8rwGO-gOKSLSICI7qhx-27" value="" style="edgeStyle=orthogonalEdgeStyle;rounded=0;orthogonalLoop=1;jettySize=auto;html=1;entryX=0.5;entryY=1;entryDx=0;entryDy=0;" parent="1" source="D8rwGO-gOKSLSICI7qhx-28" target="D8rwGO-gOKSLSICI7qhx-20" edge="1">
          <mxGeometry relative="1" as="geometry">
            <mxPoint x="1240" y="-980" as="targetPoint" />
          </mxGeometry>
        </mxCell>
        <mxCell id="D8rwGO-gOKSLSICI7qhx-28" value="方剂搜索" style="rounded=1;whiteSpace=wrap;html=1;fontSize=15;fillColor=#d5e8d4;strokeColor=#82b366;" parent="1" vertex="1">
          <mxGeometry x="1050" y="-980" width="120" height="40" as="geometry" />
        </mxCell>
        <mxCell id="D8rwGO-gOKSLSICI7qhx-29" style="edgeStyle=orthogonalEdgeStyle;rounded=0;orthogonalLoop=1;jettySize=auto;html=1;exitX=1;exitY=0.5;exitDx=0;exitDy=0;entryX=0;entryY=0.5;entryDx=0;entryDy=0;" parent="1" source="D8rwGO-gOKSLSICI7qhx-30" target="D8rwGO-gOKSLSICI7qhx-32" edge="1">
          <mxGeometry relative="1" as="geometry" />
        </mxCell>
        <mxCell id="D8rwGO-gOKSLSICI7qhx-30" value="修改个人信息" style="rounded=1;whiteSpace=wrap;html=1;fontSize=15;fillColor=#d5e8d4;strokeColor=#82b366;" parent="1" vertex="1">
          <mxGeometry x="1242.5" y="-510" width="120" height="40" as="geometry" />
        </mxCell>
        <mxCell id="D8rwGO-gOKSLSICI7qhx-31" value="&amp;nbsp; &amp;nbsp; &amp;nbsp; &amp;nbsp; &amp;nbsp; &amp;nbsp;环形图、柱状图、饼图、折线图等" style="rounded=1;whiteSpace=wrap;html=1;fontSize=15;fillColor=#d5e8d4;strokeColor=#82b366;" parent="1" vertex="1">
          <mxGeometry x="1397.5" y="-862.5" width="192.5" height="42.5" as="geometry" />
        </mxCell>
        <mxCell id="D8rwGO-gOKSLSICI7qhx-32" value="阿里短信验证码修改密码" style="rounded=1;whiteSpace=wrap;html=1;fontSize=15;fillColor=#fff2cc;strokeColor=#d6b656;" parent="1" vertex="1">
          <mxGeometry x="1410" y="-510" width="120" height="40" as="geometry" />
        </mxCell>
        <mxCell id="D8rwGO-gOKSLSICI7qhx-33" value="设置" style="rounded=1;whiteSpace=wrap;html=1;fontSize=15;fillColor=#d5e8d4;strokeColor=#82b366;" parent="1" vertex="1">
          <mxGeometry x="1050" y="-510" width="120" height="40" as="geometry" />
        </mxCell>
        <mxCell id="5hxXH1iy_aXLQU6aHfeA-8" style="edgeStyle=orthogonalEdgeStyle;rounded=0;orthogonalLoop=1;jettySize=auto;html=1;exitX=0.5;exitY=1;exitDx=0;exitDy=0;entryX=0.5;entryY=0;entryDx=0;entryDy=0;dashed=1;" edge="1" parent="1" source="D8rwGO-gOKSLSICI7qhx-35" target="5hxXH1iy_aXLQU6aHfeA-4">
          <mxGeometry relative="1" as="geometry" />
        </mxCell>
        <mxCell id="D8rwGO-gOKSLSICI7qhx-35" value="&amp;nbsp; &amp;nbsp; &amp;nbsp; &amp;nbsp; &amp;nbsp;交互式的知识图谱" style="rounded=1;whiteSpace=wrap;html=1;fontSize=15;fillColor=#d5e8d4;strokeColor=#82b366;" parent="1" vertex="1">
          <mxGeometry x="1230" y="-671.5" width="180" height="40" as="geometry" />
        </mxCell>
        <mxCell id="D8rwGO-gOKSLSICI7qhx-36" style="edgeStyle=orthogonalEdgeStyle;rounded=0;orthogonalLoop=1;jettySize=auto;html=1;exitX=1;exitY=0.5;exitDx=0;exitDy=0;entryX=0;entryY=0.5;entryDx=0;entryDy=0;" parent="1" source="D8rwGO-gOKSLSICI7qhx-37" target="D8rwGO-gOKSLSICI7qhx-35" edge="1">
          <mxGeometry relative="1" as="geometry" />
        </mxCell>
        <mxCell id="D8rwGO-gOKSLSICI7qhx-37" value="&amp;nbsp;neo4j知识图谱" style="rounded=1;whiteSpace=wrap;html=1;fontSize=15;fillColor=#d5e8d4;strokeColor=#82b366;" parent="1" vertex="1">
          <mxGeometry x="1050" y="-671.5" width="120" height="40" as="geometry" />
        </mxCell>
        <mxCell id="D8rwGO-gOKSLSICI7qhx-38" value="中药关键词提取、临床关键词分析、&lt;br&gt;中医养生关键词频分析" style="rounded=1;whiteSpace=wrap;html=1;fontSize=15;fillColor=#d5e8d4;strokeColor=#82b366;" parent="1" vertex="1">
          <mxGeometry x="1235" y="-790" width="315" height="40" as="geometry" />
        </mxCell>
        <mxCell id="D8rwGO-gOKSLSICI7qhx-39" value="轮播图" style="rounded=1;whiteSpace=wrap;html=1;fontSize=15;fillColor=#f5f5f5;strokeColor=#666666;fontColor=#333333;" parent="1" vertex="1">
          <mxGeometry x="1287.5" y="-1110" width="120" height="40" as="geometry" />
        </mxCell>
        <mxCell id="D8rwGO-gOKSLSICI7qhx-40" style="edgeStyle=orthogonalEdgeStyle;rounded=0;orthogonalLoop=1;jettySize=auto;html=1;exitX=1;exitY=0.5;exitDx=0;exitDy=0;entryX=0;entryY=0.5;entryDx=0;entryDy=0;fontSize=17;" parent="1" source="D8rwGO-gOKSLSICI7qhx-41" target="D8rwGO-gOKSLSICI7qhx-43" edge="1">
          <mxGeometry relative="1" as="geometry" />
        </mxCell>
        <mxCell id="D8rwGO-gOKSLSICI7qhx-41" value="药材搜索" style="rounded=1;whiteSpace=wrap;html=1;fontSize=15;fillColor=#d5e8d4;strokeColor=#82b366;" parent="1" vertex="1">
          <mxGeometry x="1050" y="-920" width="120" height="40" as="geometry" />
        </mxCell>
        <mxCell id="D8rwGO-gOKSLSICI7qhx-42" style="edgeStyle=orthogonalEdgeStyle;rounded=0;orthogonalLoop=1;jettySize=auto;html=1;exitX=1;exitY=0.5;exitDx=0;exitDy=0;entryX=0;entryY=0.5;entryDx=0;entryDy=0;fontSize=17;" parent="1" source="D8rwGO-gOKSLSICI7qhx-43" target="D8rwGO-gOKSLSICI7qhx-44" edge="1">
          <mxGeometry relative="1" as="geometry" />
        </mxCell>
        <mxCell id="D8rwGO-gOKSLSICI7qhx-43" value="药材卡片" style="rounded=1;whiteSpace=wrap;html=1;fontSize=15;fillColor=#d5e8d4;strokeColor=#82b366;" parent="1" vertex="1">
          <mxGeometry x="1211.5" y="-920" width="120" height="40" as="geometry" />
        </mxCell>
        <mxCell id="D8rwGO-gOKSLSICI7qhx-44" value="详情" style="rounded=1;whiteSpace=wrap;html=1;fontSize=15;fillColor=#d5e8d4;strokeColor=#82b366;" parent="1" vertex="1">
          <mxGeometry x="1370" y="-920" width="120" height="40" as="geometry" />
        </mxCell>
        <mxCell id="5hxXH1iy_aXLQU6aHfeA-3" value="" style="shape=image;verticalLabelPosition=bottom;labelBackgroundColor=default;verticalAlign=top;aspect=fixed;imageAspect=0;image=data:image/png,iVBORw0KGgoAAAANSUhEUgAAAGQAAABkCAYAAABw4pVUAAABdWlDQ1BrQ0dDb2xvclNwYWNlRGlzcGxheVAzAAAokXWQvUvDUBTFT6tS0DqIDh0cMolD1NIKdnFoKxRFMFQFq1OafgltfCQpUnETVyn4H1jBWXCwiFRwcXAQRAcR3Zw6KbhoeN6XVNoi3sfl/Ticc7lcwBtQGSv2AijplpFMxKS11Lrke4OHnlOqZrKooiwK/v276/PR9d5PiFlNu3YQ2U9cl84ul3aeAlN//V3Vn8maGv3f1EGNGRbgkYmVbYsJ3iUeMWgp4qrgvMvHgtMunzuelWSc+JZY0gpqhrhJLKc79HwHl4plrbWD2N6f1VeXxRzqUcxhEyYYilBRgQQF4X/8044/ji1yV2BQLo8CLMpESRETssTz0KFhEjJxCEHqkLhz634PrfvJbW3vFZhtcM4v2tpCAzidoZPV29p4BBgaAG7qTDVUR+qh9uZywPsJMJgChu8os2HmwiF3e38M6Hvh/GMM8B0CdpXzryPO7RqFn4Er/QcXKWq8UwZBywAAADhlWElmTU0AKgAAAAgAAYdpAAQAAAABAAAAGgAAAAAAAqACAAQAAAABAAAAZKADAAQAAAABAAAAZAAAAAAMc/x7AAAZ5UlEQVR4Ae1dCXSURba+BJKwhCyEIDsMBJF9ibIJyCDzOCAoIIuCiKO+cWOOy3NURmZAERHccN+GJ4twkGeQ0bCMgqIIgUDYkSUEA8gmISRhTUKS933dXX//S3fn7043YebknlNd+3qrbt26df9qkUqoHIHKEagcgcoRqByByhGoHIHKEQj+CFQJfpHXRon5+fnxaMkQmNuqVKnSoqSkpAHcdWGyw8LCTsCfCfdyxC2Pjo4+A/c1Af9xCMnLy0vEyE6HuRODXbWsUS4tLb2CNMkwk2NiYg6WlT7U8f8xCMHARpw7d+4V2BOBiHB/Bw75ipDvndq1a0+CXehv/mClDxpCKpJEABEJIEHJGMg+5R2YK1eurK9WrdowkLHs8pYVSP5yI6SiSQSRgdmdis63DGQAPOW5fPnyUUywGxMTE3/zFB/KsIARci2QCLYBA7fa28rIPp0na7/bIVvS9svJ4zmSf+6iREfXkgYN6khSt+ulX/9OUjchxuP4njlzZucHH3zQe9asWec8JghRYEAIuVZIBJDxBsblSfPYFBYWyYK5q2XFV5ukqIh7tmeIiAiX227vLuMm3Cp0m2HHjh3L+vTpcxfCC8xxofL7jZBrhUS4SOXPWB2Gkcw9e15emvqZHNj3q+0xa31DE5n8wjiJiY0y5CkuLr7y2GOP3b9o0aKFiCgxRIbI4xdCriUSAYR8DmSM1o9LQUGR/PUvcyRjvxsZdX9XLK16FUkC7IhapVJ4oYqcPlRNMlKrSfYvbq6YSJn+6v2WlbJ///7Um2666THUs01fV6jcfiHkWiERaEc8JsdJIKSafmDmfLxS/pm83hEUhrHucsdladnDO8nKTA2Xrf+MlFLX3B8xuo/c98BAfZEC7q24d+/eD+3evftzRJw3RIbA454iZRSem5vbAknmYRAMeUgipjw/Tzas28PG+yyluLhE9v18RHZsOyTde94g1atHGNInJCS0OnbsWObOnTt3IaLUEKnzTJo0aQzaMUIXJKd/y5U3ZyVrbeg6rEBa9vSODOat06REImuWyol9TrxmZpyQ3w/oIrVqVdeKRj1hkZGRx5YvX06O66gWESJHmN1y0bAZMIYRJImYNsVIr0kieo67LLdPviAjZ5x32D3HFgjDFezfd1RemrJQuPnqoSrg8ccffxhhnfThZjdWxyBz2No1O7QNnOSpZU9j2eb0yp8Icqbaxvb8uHaHitLs7t27d4GnCYyh/1qCIDpsIYQkAnUaZiTb8Nm81Rq9JolIGnFZ+j9ySZp0uiLVo0uFYbSbdC5yhCcNL5AqrhqJlEULvrN0pVWrVt07d+6chIjalkhXAGRRiea49C0HtKDEMlaGltDlSNQhb8smdzkqXb169YgMkveGKixUti2EoPKhWB0Gek0SQbZSQZfbQSJ80Gum46xlOgUpyzaC1OQpr8PGYIf96U9/6gpPR0OEzgPSSEGhAXjOUJDQwjepUumUzRWl4MQJdzkqrGbNmnVc7kYqLFS2LYRUIImI9NJxrlgD8NCnIKKmctmzI6Pc29W5fHc5KjfmiCJVsSosVLYthFQgibCsBNdAnDUPCE/gCgqtY6qiPNoF593MZnSMFZuFhYWKu6rhsYAgBtpCyLVGIkA+T5nHgOIQBb/pzhcqzJd9+pCbcWzQ0LL45NKlS4quuhP6KrAccbYQgvItraxIEgES+rO5z5RNKchYFyGlbiqkgr3aB1MVRRK5UVeOypCdnX3U5Q65WN4uQiyi6FCSiIKCgnOuAfBIIrBCvlGDpWwKCpU86syRMDm00SBRUcksdsb6cMnOcg4D8/ftZ+Ultm7dutuV8bKlgCAH2EII9pAT5npDSSIuXryY66rPI4nAcWUVVomBlaLUloJCBTyBH9zgHSlcQUTG9q/dfMPtw3tapL+QZxXPnTtXHU4U6VLVBN22hRDsIZnmmkNJIs6ePXvcVZ+bR9Y1oFatWiewShbrghxOSm0pkyJQHLJ1WaR8935NObK9mlzKC5OSK1VgV5Ej26rJ9+/XkG06sckNbZvK3eP7O/LqfzIyMjYA1AQ5qY8LhdtwtvBRwXLEjdbHk0Qs/ux7x2lbkQg7p2M7JGLTpk1qRnolEUDIy5goY2Frk4okh1JbSgF48CSQHJ3Oqu441enbr3cTGc9PHSfh4cbhQPnFb731VoorLeVCFkqhLycYbq0zvgpDp5cHm0Rwz/VEItgOiLsVzc731i7cfe9Fm14zx1OE/vJrD8jwUb01JLiZWmNqInDkmL4yfdb9EhPjZptVqtTU1JSFCxeqDf0Iwi+puFDZ3tpqqQ/i7sVAzBh9BGU/z//lf7XZyLi6zUsksVchxN0Q3EHcXXBBIO6u6qDn2YfdW0JsbC35ZP7TEhlppfMHDx5M69ev3zsQ2fyEIrNYricAQsJB3lJxB55kjt++NVP+PulTR3C1alUlGgOen3/BcWPYsFG8JN3USm75vfcbQ3BWv3Tt2nUKhKrcqzh/VsKEfA/xByGJaJDlQigvFxdCOhKBNLZhwMAkmfjEMAkLszaDSHn99df/gBmqrRIgoAqQdBMmRl9U0hOmJUwLGIvc663Xl8qab7YiSuSOEb3kgYcGO9x2foDkY8OHD58G7krVvQf5dtrJW9401pHwUSIG43VEP2VOwmvShfPXCGVTZgmuPi1JROOmdeXQQTcpHvBfXWXik8M9IuX48eM/HDp0aGDfvn3jQM//jLLGwTTTl+nJzTbce9dMuXjBuQW98e4jktjKnhjq1KlTGRMmTHhTt5FTuPUtDPeQkINfCMEMjcDs+Q4k4mZPLaOgkOLrLWkH5ASVCjyQiPi60fLhu1/LypQ0rQhfSMGVcUZUVFQTrAr3JYWW07Nj/brdMvMlJxPWoGEd+ehTyxyyZOQGvmXLllUjRoxYjImnpI0kUWtgPHJ7lkKCEOAXQlgf79QhSkivXr26k78MoBFArF9I8beKGS8uktT1zsM8Wdm77+nvtQggogSs7aZXXnnli+TkZPfSBYOGTNzDQr6R6xtn5PP0MV7c4G5Og77feOHChW/j4+Otx1ov+fTBmO3y8MShjiC1Ula76L038qXP78t96WKBpG/O0JJ4OnkzEgpxhV999dWC2bNnp23fvl1JBhjFDXw/DFnvq0KmUI8GfiOEOalA9swzz/QeOnTo/Pbt2w/BydnvcgJFCia07N1zRDam7pWDB44Jr5Czs53MT0JCLK5wociAPYTQ6vpG0qhxXYfb/AOyG9GhQ4f2WVlZP7jiiAiyuLtg1GbuinJbmIgNgcyRCOmFPnSGXQ8rPhr2KUo00L5MuANW4vabZKEyPUSOHTt29JNPPvkIbvq6oUFuvlafyofbLvnidfHXy1JlWfJPkp9nT77OO/sx4/rJkDt6emSv2SwgZDOUGMZh3+A5w+tegb2zCybei2jvICCizH4iHdnlZBi/lLjLixDUJ2EwnbBSuj766KNJUJnpXL9+/Wa4ZYsNDw+vibsETKoLueDrD9eoUSOqcePGFjJXFlJ++mGXUKPkTLbXict2eAXKuR54aJDc3Ke9xzTnz5+f3bBhwyc9RYLTqwlRDQ+gDwMRfo8X+uaXErffFXhqtCssCjYHuymMx3KhwFx17dq1fwbJ6+bKo1mekHLrH7pKbFyUJC/5UUtHR3hMnMS26yDRrdtJRFwdCY92XuQV5edK4dkcydu3W/L37pLCXCWCQoMwljyVj5swwCOLjWKHo33L9BVByNm4qKhoFfK204cH4rarxO1x4AKpUJeHlwtUBmgEw5GiCJ3Hcd4lXIKqz/kff/xxWqNGjXi4MwDp/7uzl8nqf6UbwpUnPCZW6g8YLPFdb8IIc2H6AEgXc9LT5MTqFVKU79xjmLr3LR3k6edGW5CCCXEcg9YGjIpjGYJENQOJWosszWGCAnaUuEOBkDIbv2LFisgWLVr8C2TiFnNiTyuFaWLbdZSmo+6RsIhIcxaf/uKCAjmyZIHkYcUoGHX3LTL+vj8or95+E6vkKReZWo+V0VkfqdyhVOKuEISwY76Qsm7tTnl1xhLVf0m4uZ80HDQMiyKw5pZi5R1fsVROb3CSPpKvZyffJb16GykRwi9iQjSDPQX2RK0BLge5t1ArcZfJLZgbFSw/ZFTF06ZNawnOzEC6yE1Nf2EhxB5OhiembQdpMmJswMhge4mA2olt5NKJX6Ug+zdHF/ZCg3LwkG5SFYJHHZC0tgQyxiOPgSYGWUMz8ejRowd37dpFqTbZbQ0MrdFCr4IDnQ4DBzYXHTd8oLEMurmpPzlP2dwzEh+cKGHV/D7mWHpApETf0F5ytqZJSWGB8ABZs2Z1adOumTltWzMyOEmm/HWephTIDNR27HRboXS9o0A6DCoUKtvVaVwql6HBcjHXiUtyhT/vPiz9bu0k2I+0ejAJw3BMqP/JJ59wszRcehlmgZbjKjjA9yeh4wbxCw99SlmaTeAG7u+e4avpVSMjpcGAQVqSL4F81lkWXE0NzQpDCJAxwDwQPIHn5eECBUDW1sFNmROV0x9/Y3eUTeYPlxu4Otj381GfJV5tDc0KQwhGoat5JDZucJIqhse0xZHGSMbNyQPzo8yYNh20vJsggvEFV0mJW2MdKwwh2EPamAciU3dPEt3aEm1OHrA/unVbLW9mhtKn0IIMjhArcatDdANVafl3S1WSnzZIltYIlTXnjFs0EhmfoIKDbkfGuwWOO3ccktsHTrZVRwiUuONcFfMQnUV3Ra4QiloMkHPGLQUPr13bEBdMT3i0gbGzXfTVUOKuMIRgFCzsDTjTqwP+6JnqWhRsJW5PGpoVRrLQT2qwG8hWXHy0XPo12zEERfn5Elk3NGSrUCfbatwkQd7/x+O6YTc6J/3PP2TP7ixHIJW4m+JjJLtQlhK3Jw3NClsh2NSdI6/rXXy8m0wV5FiidSnL5yw8e0YroE4dd51aoM5xtTU0KwwhOLlSbGCAlokUEjvh3AE3C6zCgmXn792jFZXYmvupdwilEjc0NHe6atY0NCsMITghbzYPQ/deblY372e0VX2vbE5YDn8pTua8L1HQvccNyunRDpUSN/pfPH/+fIUQjb0M2h4CUUg8ejQERv9g2HVgb3n0prxmJ9xrIcb5EreJp3BL1wJkC8FuaAMdW6p08rTOyyXeZ9S5sYc7QRBcOel4biMv11ESL79at+FRwDdQiZsyKeoLKyXuI9vDbWloelPiPnDgwIaNGzc6G6LTGS43QlxPXEzH4GoPhnGgMfiql1QAoLke4SNxCTQbqkSH6FcJlA1kyZBhPWUhvu4lqni5FNOhi1AGFQwoKbgsJ1GmguEje1suqlSc3vamxJ0NJW5f4EOJu2TmzJnLXHkdXVXlBEyyMLh8iecNFET10tEwbnGmKt2DjXScBBZkMCkvfja5xCdEJ2/6Di+eGxTSxTuRw7ioKjrnpA4J9WIN35Owfl+glLj52gMR5AvKUuLGykjR6YAdRlnaHqJNY18VmONc5OkLhPczxwXq5xNKb8z8Qs6ft+qlJfTqKw0Hjwj4ToTIOLY8WbJT1zmax9X73N/ulp43u0Uo/rTbjoamj2efMrt06fKCTombS1bbQ/xGCDUXsTpSUUhLfzrhLS3J29L/WyfzP/0W9Nm5p/A7jXYdmsv2rQe1bNFt2kuz0ff6Tb5IprI+ny/5+9yc1ai7cIX7R49XuFp9oXDgnv7omDFjZuj2DrKSO/R1+bWHuMgUn9LziAx/75r5TfhrryyRbenugefM4vVqq+sbO+KoAkTI37tb9r4x3XGfQRF6WZJgclM56RuxZ6zUyJTqOG8LqYhdU/emiYoLlY0H0TKhUT9LpyWZg7qcndNV6tcKce0ZFv2lQO6afz2SLTOmLZJTJ3lgd0LHTi3k6UmjHao/DKEWysL5q+WLxT/iq1o3RxYRG4vbP6oBtZWIOvES4brfKAT3xEMfzxlkbRU35SidPXUXIc2aXycvvDxB6kA6EEogewtN+q+gUPili0yxOqrBfAej7R0MJNhGiIubsnwfEsiDYQ0axMuZM3lQ+XSKIUjTR4zqAzJCnSkrn7Hhpz0y56MVlmc4nF0o+5er7r8fuQ2KdnnyyYcrNNJ4Xf04eXHGH4Ua8sEGPn4G1jb13XffTVmwYMFRXflcGWthnEoDugg6/UFI0B4M40RVFUdF1ZCnnh2J78Nbm5pm9HIV8vuTZUvXO/R5jbGefTxnDLvzZqiS9tA4I77B+DY+5rlypdiRKQ6ikykv3SstWhrEap4LLCOUWpqZmZlb8bbW3jlz5mzXfWPCnOw29wyeSi2CVYQ5QI2L8nu0yVWBZAT9wbAYfNb26uyHpL7uFQaPDdAF8g6c16686TuYcUzO5kDZGuwygSshrk6UY//he1w89Hn6Omvzpv0yc/piKYTyAoHvY01+8R5p1765wx/oD9pWsnnz5lXjx49fcvLkSSoGEjj4h2H2waiDIJyewS5C7kP2T/VF8K754ftna29U8eklO1/h8tvxdHyuzIrJr38w5wlJqBfY/YS+Pf66+SbjC3+bL+qxGXJ2Tz83SnqadLX8LZfpwU1lPfvss48vXryYrB2vJK28PBN6ACvB9pAIq8OtquGKL89ds3oOiWTI04Nh/Kzs448/fhPiadLbkMD1NzSWGa89KPyii8DP8mZO/1y+XZVe7vri4uKav/322+/hvUZu2raRwYqr2qn9+eeffw7p3KJYeBbM/VbbZDsNLpKY+l7JoqWKqjjo/rrLyXFfKSqWAQO7GtJgQ7w8aNCguUuXLv2+W7dukXhArBk2e1ttNRRUhockk9qLWzYfcKwUcnIkZ5FYuUpfi+RwBT6/m//pN/IZnp6dj36vTNkMicJeyYXWSr3rYj2yz/j+JBoU7HY0YSHOHbaRYotkgcM6Bk7IgJD77p4pOTnnHF3mc358Oc4u8DWFr6c7vwsn2zl30TOGrNA4vwil5wcRyEuRfUDK7/HO4uAePXoMwKcBFGLaBnwKkYNvB7/Hqjt75513ToDY3yL3IKc4Fe9GHso8oZU7eGh3qRZeVVZ+naaRZS1S5yDZtfH2793IYmFxdcVoTrsIKQBCIrRccIwYMkU4uwkjX74A7UL7CClBti8mRTnyknYnp0x1uNUPZlZxbGzsePgpUlgOw0HsGBER0Qon3aYDBw5s26ZNm9YgDfUgOY7GI5W8ZQoDIi/j+0d+i3Ls8OHDWSkpKbvmzZuXhRXnaBxWevunAPhuxSIV5EHxpakLZffOX1CU/+Dt7V/0pRST6VG8kv0JSnUOmI/i7SLEukLGzhKlJVKeFUIa/ulCywq5jBVyP9pNNogyMwUU+1JK0Aqmpgq0aRO5h9asWdOgY8eOS4FECyfBfeTVl5eIXj+MZVNttDxv//KbezxC8DCK2sbyfIGtTR30272WXaWF+DWgM65qzKIdHqbIy38FsxKGO/ARGG7+F2E4A2lIHigC4HRnmhQYrrS9t95663dQcr4Z9zG8ozEAV2u9+rFaGHetYDzsiU8vkkBuu6Ngd+FaLUaHLYRg2WUas6Ghuoe+gv1gGHh4DjLBm0YBSRB5+gMw62H+BfNPmCUu8yXsVTAbYZjGudnBQejfv/8e9Ok1p8/9S1aee4aCID7sWXXixIlESHtVtjfbFkKQmbPLAKG8awZXopa2be7E0DgbHvybTpI5WXlY+bLe/sWexzugxjCW/UvfDlsIwYYe9NeA2AhPrwFxQ//www+3uxrJVRASQD1dzAWHWG20Oerjnt3EXK/ebwsh+MyLND1Zn5HuED0YlrZnz57zrrqOmesMlh+TLMFcVijf/sUXyM4TqIilXn07zJumPs7snoyD0wh0hCyoA8iDe3owLNC7ZkpIp06dyn2AwH2CYoeQAPpSG30xlB3Khz1xUKzhqizOUKnJY2uFMA//wQwdeMeU3/GfG3wwLBh3zenp6avw6P0pVx1HYBea6wuiP9tcVigf9sRkc0oyy9hD/FkhgndOnsvJybkRB6u++s6QXeTfPNw2tEeZrwF5u2sGZ7V/5MiRanVQDrNTX0ew3WTlsUoM0gey8upsFQK1UZJ9gkZhnF7jr18IwQopwp36SG+vAVFqe+fovg5jrMa3D+L9U6NHj35Dd6NGVlXtI74zBxhLVh79MXBaZOWVHi9Z+SYdr0CdyV4FZb39a4OVd1Rkm2SpZvE1IMi2kk6fPq04IRUVkA0Z04Fhw4ZN0d01n0ZBOwIqzL9M1yQr7zdC2Gd8QXr6o48+6ss/zeJG7N84OFMzX1paWkpSUtI0CP8o1iDwALcOxr7omLkCAKyOa5KVt7kgvfY4cty4caOeeOKJR+2+BsRzRkZGRhq5Kd0Gzgq4Mn6CsSUVZYbyAlZ6UB/2pKYiXzjlnqoH1/9YKYYoFXFZ+ni9u7wIYVlcZV5fA6Iond9BgIYexvXm9vfee2+b7pzB/FwN3DNIpkK+MlCHBt4UNwJ52FOpjZqfmyUluOeee/7imnxk5ZfCeOUeg4EQ1cEoODrCNIWxUy4bR9aW3FRIN3CU7xXAULyOyKfMCfx52JMSBz4laF4ZLJNkecCAAYtc5R+GvcHl9mjZGTiPGX0ERiCO7GQjmFgYHojI6pEPp2yK4hCewHno8zpTEHdVAKxvOFj51WZWXlVeHrVRsvK4XJvu4h65+slI+Jx8oUCI6su/jR2Mhz3NnSUrP2TIkL/ruMd9SKOEpubkmj8gLkvL/R/iuJZY+aArDvy74uidd965iKdvF0FE1AaPrCXiJO/3ZOUGDhZ+BS7B3v/ll18Ut0hW/nsYW8eDSpJlnUEVyspXIsSKEIZUGCtfiRDPCFGhV52Vr0SIGnrf9r8VK++7K5WxlSNQOQKVI1A5ApUjUDkClSNQOQKVI1DhI/D/kNHoCzKRygEAAAAASUVORK5CYII=;" vertex="1" parent="1">
          <mxGeometry x="1242.5" y="-667.25" width="31.5" height="31.5" as="geometry" />
        </mxCell>
        <mxCell id="5hxXH1iy_aXLQU6aHfeA-4" value="&amp;nbsp; &amp;nbsp;问答系统" style="rounded=1;whiteSpace=wrap;html=1;fontSize=15;fillColor=#d5e8d4;strokeColor=#82b366;" vertex="1" parent="1">
          <mxGeometry x="1050" y="-591.5" width="180" height="40" as="geometry" />
        </mxCell>
        <mxCell id="5hxXH1iy_aXLQU6aHfeA-6" value="" style="shape=image;verticalLabelPosition=bottom;labelBackgroundColor=default;verticalAlign=top;aspect=fixed;imageAspect=0;image=data:image/png,iVBORw0KGgoAAAANSUhEUgAAAGQAAABkCAYAAABw4pVUAAABdWlDQ1BrQ0dDb2xvclNwYWNlRGlzcGxheVAzAAAokXWQvUvDUBTFT6tS0DqIDh0cMolD1NIKdnFoKxRFMFQFq1OafgltfCQpUnETVyn4H1jBWXCwiFRwcXAQRAcR3Zw6KbhoeN6XVNoi3sfl/Ticc7lcwBtQGSv2AijplpFMxKS11Lrke4OHnlOqZrKooiwK/v276/PR9d5PiFlNu3YQ2U9cl84ul3aeAlN//V3Vn8maGv3f1EGNGRbgkYmVbYsJ3iUeMWgp4qrgvMvHgtMunzuelWSc+JZY0gpqhrhJLKc79HwHl4plrbWD2N6f1VeXxRzqUcxhEyYYilBRgQQF4X/8044/ji1yV2BQLo8CLMpESRETssTz0KFhEjJxCEHqkLhz634PrfvJbW3vFZhtcM4v2tpCAzidoZPV29p4BBgaAG7qTDVUR+qh9uZywPsJMJgChu8os2HmwiF3e38M6Hvh/GMM8B0CdpXzryPO7RqFn4Er/QcXKWq8UwZBywAAADhlWElmTU0AKgAAAAgAAYdpAAQAAAABAAAAGgAAAAAAAqACAAQAAAABAAAAZKADAAQAAAABAAAAZAAAAAAMc/x7AAAWyklEQVR4Ae1dCXQUVbr+yb4nZCWBhCwsgQBBCAECyGYAUVlUEBwXRpQ3bxhx5IzDHJ7D0xl96jmC+z7yEBRRFEeHHUG2RIYdQkjYkgBZCdkXEpLg+/5OV3UtnaY6XZ3OzMt/TnXd/f51/7r3/lvdJuqCrhHoGoGuEegaga4R6BqBrhHoGoGuEegaga4R6NgR6Nax3Wnrrbq6OuiXX37pi9L9cPXt1q1bNO6eSPNH2Bt3T9y9cNUgfAtXFcLVuPIRLsCV7+zsnOnt7X0WaU2o+y8DnYIglZWVMU5OThMxahMxmJMwiBF6jCDauol2zuJKR5u7mpqa9gQFBVXr0ba92nAYQerq6iJaWloexaAtwGDF2+sBpe2ir2bE96G/dQ0NDd+GhobWSvM7Q7jDCVJTUzMJA7MU1zQMjLMDB4GJ8eWtW7deCwgIuORAPGRddxhBsC+koOe/4pokw8DBEZ41eDE24P6iv7//RQejQ3YnSG1tbRjewvfwoA9ofdjmpha6cuUaFReVU1FhGRUXllNFZS3dbGymuroGampqpsaGm+Tl7YEH6EY+vp7k5+9FgYG+FBziT70iQyg6JowCg/y0dkkgSAMKv+bn5/cqCMRhh4BdCYLl6QEQ4wM8YIilp8Ng0LnsfDp5/CJlZuRR1tkrGHzbmSN/f29KGBxNQ4fF0R3D+1JYj+6W0DDkYV+7BHznYhk7ftvCdihgF4JggN2qqqreB+e00BLOJcUVtGfXCdrz4wnisL0hfmAUTbprKI2bMIS8MbvaArxEjbieDQwM/KCtMvZK150gFRUVAZABvgXCbe4V+VdLacPnP9GB/RkEKcLsswX7u1JchDf1DHY3XD26u5O7mxN5ezqTm7MTebg7UW09M01EdQ0tdL26icpxFZU3Ul7xDcopvEE1N1rzlR14ernTvTNH0czZYwxLnTJfiGO5/TQ8PHwRZswtIc3ed10JUl9f3xO8/k48wEBziFdX1dOnH2+lfXtOE95AWRF3VycaMyiAkvr7UWKcH0UEucvy2xO5WtpAx85V05HzVXQkq4qaWuTE9/Bwo4cfm0z3zRpNziCyOSgrK/shOjr6ATyTeeqaq2RDmm4EwRIVCDz2A/EEc/ikHThDH767maqwOUshPtKbZowJofFDAsnLw35cMM+Wn05U0PfpJYbZI8UhJjacnn3uAYqO7SFNFsOFhYU7N2zYcPcLL7wgf4vEEvoFdCEIEPaCmmIHiDFWiVpzcwt99O4/aMe2o7Ks+CgfWjA1gkYO8Jel2zvCDER6ZiWt2V5IFwvrxe7c3F1p8ZKZNBF7jDnIyspaN3LkyMeRJ59m5grbkKYLQSBjfA0c5ijxqK29Qa/+dQOdPmmSu7w9Xei3MyLp7uQgAgGVVTosDgUYbTpQQv+7rYDqG00v/px54+nRX6eaxWPPnj3/M2vWrP8ym6lTos1rBFjb/wQuf1Tiw8RY/tyndC7rqpg1tI8vrfxNf+K7I4nBCHH/A3v70IShQXTyUjVV1LRuEWfPXKb6+gawyX1UOEZFRSWjakZaWto58aF0DthEEHAhQ7A5f4OHc5Hi1djQRC8sX0MXLxSKyfeMCqEVj8aRr5esqJjvqIAf8JmWFEyXrzXQlZJWeZBfIhY4ByfGyNACG+8yYMCAEZs2bdqGVaFclqlTpN0EwVrs1NjY+HcQI1qKC6/Rr778JZ06kSMmP4694rczo8jJyXFLlIiMmYCLcze6c0h3KihtpFywzAwsoEZC4o+KDpPVwF4ZGBcXF7Bx48bdyGiUZeoQMc/raWgYS9UCFBupLPr3b9Po8M/ZYvKcCT2wefcU45014IyXZfkjMTRqYIABRX6x3lq1Caob9USYNGnSA6NHj56Kgrq/Ye2aIeXl5Wwo+h6Xt3SAL5zLp5WvbYSM0cqITBgaSH+Y01u1FkvrdKYwnodSQJC0MxVUVddMLc23KPdSEU1KvUP2DBB8XQcNGhSwZs2aI8D/up7P0K4Z4uLishjIh0oRYUHv/Xd+IGZzGXqFeNBzc6NlDyIt31nDLAuteCyOXFxaX/7MM3m0YyuPuxyGDBkyYdy4cczm2y7BSpq2miCYyh64fidpwxDcsfUoXTJu4k540/78SKxdBT1l/3rGY8O96JHJJqPlhi9+ogZol6XAs2T58uX3Im2wNN3WsNUEAWe1ALMjXNpxIzSzX36+R0yakRJC/SCB/yvDryaHU7hRfVNRXkO8NyphxIgRk3v06MFqIk9lXnvjVhMEHT2l7Gz3zuNUWdGqEvHzdqEnpnf+TVz5DMo4L1mPTzHNki3fHzLYYaTl3NzcfDBLWDZhhwxdwCqCgLMagOVqmLRn3sC/++agmDR7bCj5Qhr/d4DUpCBRyVlVVUcH959RPdaECRPYEsoEaReDpGzQqpEDMR5RNnDmdI5oy2CV+P1j5Xy7sry18fKGG3T4WiFdqCqn85VldO1GHdU2NdJNMBEBbh7U3d2DQjy9KD4ghMaE96JYv9sbobTiwHvhfVh+P/pHvqHKts2HaeJkua4rMjJyMCAwIyOjFwpd1tp2W+WsJcgsZg2lsHf3KTE6MTGIeMmyFZow2DuuXqSdV3PoTPk1mFfNt3i9oZ74YmKlF+fT6uwTFN89mH4dn0jJofosm9OSQ2j11gKD6p4l+OulVQYzsYARNneXp556KnHJkiWsTrGZIJqXLHbbQYcDBET4zixuetpZMSk1iTXw7QfMQPoh7zw9vGsTrTx5iDLK2iZGW71kV1ynZT/vpleOp2EWtbLgbZXVkh6AF2xYv1aNNON3KD1LVS0pKSkBiczo2MwCayYIbM1TMDtk0+M87OD1cDpgCPJzpcRY7U4FhkqSn2bMiheO7qc3Th0yvPWSrHYFd169RH86tJu4XVthLAxnAhw+pCZITEzMIOTzWJo3qAiVNdw1EwSCHwtBMjglUasP7+cHXZUs26rIxktnaX+hzTNe1ueJ0mL6KNN2X4XRCSabDTtgtLTIiQz9VvBdd90VjM5t3kA1DyHWSvluht4zM0wDmNTfhLRsVDRGeA+wB3yXm00FdTU2NR3k5ybKJKzJzoE6RQmpqam9kdYxMwRrpwtmCK+TMsjNMSGWEO0jy7M2Utckl4TN1XfFFOzh5U1x/t0pyMNTk1qm5ZdWBsFce9akDZI837msK6qq8fHxTBCWhm2SiDWxRJA/YrF9yPxmyq5XU011vQExL7C74YFuKiStSUgKDafcmkpVlTBPH5oaFUspYZEGQrhI1sXKm4301YUz9BWWO95w24KMstK2sjSnx0d5065jZYbyl/OuqeqB/Y0yJjLfXacqoDFBE0FgmIli5aEUCgtakeO06B5emt5WaX1leEH8HZRTXUnHSltnHcsTs2PiaVoUFH0SIkjrBbi5038kDCeeBRsvqTdboWwpZBdbISrU9D7mX1ETuHfv3kNSUlIC0tPTmQNo9/qriSAgRqTygcrLTF79YTbODm7by8WFXk9JpcuYJS5OztTT21fZZZvx8RHRFgnC7dkKkRKCsJsrb+xS1yFXV1ePVatWzRs1alSGLX1p3dRlykTukJcsAYL9bVuuhHb43ts3wCpicB2eIZYgzNOmZd3QdIi/O/n7tL6/vFRv33JE1SXMu+MgII5DRruVjVoJonpd2YlBABaeHAksDFqCGD+THGGpnKU8XjXnTTC9l1+s/ZHY8U8KLKf9/ve/f8rT0/MOabo1YU0EQT8qirPKXQD2OnQUsDTO0r0lSO0Vaylbc96Dd4ZRL+PSVVtzg5goSggODo556623HkV6kDJPS1zTSGIPUakEBMsgd+LmKhPgtfSrW5lPs05alDMSuocYuDM9OmSVPPuUCcBGOXMyycyZM+dh+boT5aweGE0EQcOqRRqcl4AXbOhisEMDrB75+mJmm32y3PJM4sg289uTMRo2d8HbkjnPj97brGK5sWQFvPPOO0+g/Rhr+zCNqoWaWLJMG4axnJubad9obOp4imSWl9LrJ39uE2vgTEsTR1Nff9sUnuY6WDwrSrS5Z2VepoP71HaS4cOHT3vooYemo76ruTbaStNEEAhdreZASSvS7yvYQ6MjoQwq9/8+so9YTW8O2I7x3NDRBhnGXL6taZFw4JDafdZ8ul31gRGr5Z9//vmF6IsVj5pBE0GwPJlcEI1N86djApRU3F7tIZTV4/7SsYPERDEHLEQ+P3wc3R3Vx1y2bmmPw9eMNdwMpdeq6JuvD6jahrA49OWXX34IGZrV4JoIgrXyqrK3kFATK1mA7zA6Cg4UXaGT14vNducB4fKl5Ik0sWe02Xw9E1ldtHA6Gwlb4buNB+haiVr1swAQERGRLJS73V0TQbAe5yob4o8qBcgpukEtbXwJJZTR6/7FBfOCsI+LG61KmUIjw/SxFGrBdyp8gvmzCgYWA1Z/vE1VzdfXN+yVV16Zj4wIVaaZBE0EQaMXQBTZGuHr50Uhoa3L1k14+PEnZPaGkhu1sKurXTuxZdDzSeNoAMy3HQnMaD49O1LU46UfzJR9eiHgAtfTadhTkhC/7XjftgA3CmK0YGM/LXQg3AcksMa5FY6dN6lShDS976evs0lXrdWdG5fQoTND+lz8SUPqcBMn97cPt4mutEI5fP8ege9KeFOLFdLaumsiiLFymrKRYfjUWICfz6rXTyFPr3tZo3oW8r4xv0+CXl20q51F90YS7ykMebnFlHEqR9XO5MmTmSD9VRmKBM0EwZup0hMMH9FX1Hhm5NXQNTtzW3VNJnWN8BzDgsPJH65AjgTmtiYPMy2XuTlqpgPfvbOGk7ktixyXZoLA62Q/uC3ZK+of4ENDhsYaxoIVroIBx16DE+WjfpbkUE17pb1QMrRbhw9KL+SbbC782bUSJEutaX1TFkJcM0HAutVDHtmibGNy6jAx6buD1+AapF7jxQI2BpidHRpsMlv3Cwii1MjWF8LGpttVnQmxdmcBzX8pg7KvthLE1dWFkkb0U7WXnZ0tyHJqaklKm/QfkkQLwfXIe1CanzI2wXCmCBusyqpv0k6YOaePNE1faVlbwyz0rQRre7W20qBc6+0TQI74KKsWBxV8u6+EvtlXTByWwoInp1JQsHwmw4WqCZ/BCRuLxTfWKoKA/d2Kb+tKwHWFCUi4uDobTkVYu3qnIekzvDF3getwc9E8+YSmNN2ZAGzEcgTw17pf7y0yEENJiIhewbRg4VQalSLzJTSgefHixaOZmZm1RpwtsqNWjRoI0YhGP1QOxn0zR1N3nMTDwBv7hj1FyiL/FvHlfztPn+0olM2KniDE0mVz6P1PlpglBs+OlStXbjIOACvfyi0NhlUzhBuCgPMBOlkG4oisjbuHK81/ZCK9//YPhr4+31WEz40DKSpUZdeyhIvFPDbTso/Vj/m5VFhbY7C7syD4q76DaGBgiMW6emWezhFecnwhhg9CH3p4Ag6yGQwHwbbf6+3bt3+FUyAKjDiwCuqmJXzabqmNWj4+PrxkvafMnnL3COof32q84TNFVn59WTc7CWtlXjyyn97LOErnKsqoBj5cFZBJ0ouv0jNpO+ifJcLzKrHSNy7hlOjdj5fQ+EmJFomxd+/eTfPnz99qxIJnR+btMLKaIMYGX8G9Sto4f/L8u2dnEe8pDKdzamjLP9X+S9I6WsN7C/KIlYrmgH13V8EfmE9m6Eiw9Ik3DuGpfPvtt1+fMWPGNxKc+DMB2ZhJ8sRguwiCU9fK8La8KLZiDPTGN933zxknJn+yuYBqjEcoiYntCKSVmCeG0BR/M3KpukKIOux+48aNaixR62Gceha2kOMSRM4gnC2JtxlsF0G4NRDlbRDlmLLlufPHU3hEq+zDJ/Cs12GDr2hsUHajildqKKOqpHNCYmLiM3Pnzt1cUFDAzA8DC9L7cZlXUXMJBbSbINhHWrDBPwmiyBhxNzdXHN4yReyGhcVqGy2KgW63Zw4C3W9fRkTKToHi4mKBEPwGncC1GZdVG1y7CcLPhA3+JDiMDzgshTHjEii2T7ghqfHmLZxRZdteMia8lVmQ9iENs/+vHr5X0jZtDDO7yUuU1bZtmwjCSIMFXgEdl8xTDbOH7n/QtJf8AILYsumyq2hKD/NEce7GniXJkNghMdoRpCohgXGRdocxYC5KANmqISRqudtMEGgxK7B0rVB2loJZIgiL16ua6LgN9hKWzv+SPN7gWM1SOrv3eLu6URIUi2+MmUKjw0ymVCUeesX5TEcB+DhaJTQ3N8sUr8p8rXGrBUNzDeNzhc+wfL2MvO5CvouLM905cQh9b/zgfs+JcpynaHKMEMppvfNMmAe7B1+OgCvXTOMdFKx+DnBYgkHIJv7b5hnCg8OaYCxTnykH6s7xg8Wkw9lVZq19YoFOHjiYIYw30UCJpVRAG4dlCtpc01QSMq2460IQ7g/c1kfKfuP69hSPYS3DlBfOolKW6+xxlqX2njSpoFLGDlShDAXiRWPi7Xl0VW1Tgm4EgVzCXEWOqWkYW7D4Dx4SKyZlX5H5SYjpnT2wGucyCmcAR/YOpT79eqpQ3rp162ljYrUq04oE3Qhi7FPlLRbX12TROy+xqlmBo0OL/gj7zvfppSIOCxfdLXqZCIk4Irdo9erVl41xGccplNF615sg+5QdS/23Cq7bNJuVTds9zibp177KFfe+kaMH0LCkvqp+Dxw4sEuSqDaoSzJvF9SFy5J0wsuWDELDRMaLSsotap5l9RwZKaloJF6mdh4tE9GIjQs32D3EBGOAFYlLly79yRjl5compZquBMHGXspCoRS6d2/17OO0Kh0UjdK2rQkXlTXSgYwKcoUl0wfnx/vi4rtg2WSTwYX8ejpxsRpH/FXKPDGjsG+seOkx8vR0U3WJwzDXS1QmwsauKqc1QVeCsMQOIVHWNxuvBGiQHFgspHXU/Y+fnKd8HAVrLUydPoKe/M10csfJ10rIy8s78fTTTx80prOg0rkIAqm9CkKiDG9WNgrALqeOAmuIwbM8KbmfwZTA/z9iDvCcJfj+431J3kmE260yEdrRdYbgQX6BE4TQdqe9swahrrZB/LceRpR1YXxGb//4XpR4Rx/RhGDuIbBvlC9atOhVnAff6vtDxEJhnrmy1qbpShBrO3dU+T/8aW67u8YRuVcWL178xpYtW0qMjbCh/ed2N6io+P+SIIox0ByFs9sBmGVXSzZx3jeYw9KNfewiiAZyQE+Vu27duo0rVqzgfUIAVm6xIGxyRRFybLh3EaSNwYOdp7moqOgsVCK7ly1bdhRxqRY3D9UO47J5E1d23+EEmbj0iBKHThHHLLiE/aEU99KzZ8/mwmvkVE5Ojknn3oolC32ssxI0u7rjrjtB2MYObksmjLCFjf+bsDMAO0Mrga19OKbvz8p0Y5x5dd7AL+G6akyz201vXRYjKnAfItKzHxwr+muJiQ4I8Isxe85YVc8S4xLnsZ79Cq4sXGm4NuHai8vuxEAf1h/9wJUsATSfX2KGzLNUprPlgXtKS05OZm9M3ic2OBI/e8yQt7BsSTdARz6fpr7Xr18vaGuVe4am+noW0p0g+MDxEBD8QE8k7dnW8ePHd7755pvnjX3Y5q+kA6K6E4RxgvXwGeh6VuuAn12bYGLcc8896ySd2KwclLTVrqBcV96uJtquhDdvIf705Ak4QcTzCTlwqrPLC9A2BvIc5qZ4A4erZ9batWt3gbUVZgYX5LDKNVbegv1jdiUI0Of2h+Pqa/9HsakHJgY7Rzt877M3QYRRCkGAicJ3dsLtqH7RlVnggecNnI3lTAyb7OCo3wVdI9A1Al0j0DUCXSPQNQJdI9A1Ap16BP4PomqZbT53oN0AAAAASUVORK5CYII=;" vertex="1" parent="1">
          <mxGeometry x="1070" y="-586.5" width="30" height="30" as="geometry" />
        </mxCell>
        <mxCell id="5hxXH1iy_aXLQU6aHfeA-7" value="" style="shape=image;verticalLabelPosition=bottom;labelBackgroundColor=default;verticalAlign=top;aspect=fixed;imageAspect=0;image=data:image/png,iVBORw0KGgoAAAANSUhEUgAAAGQAAABkCAYAAABw4pVUAAABdWlDQ1BrQ0dDb2xvclNwYWNlRGlzcGxheVAzAAAokXWQvUvDUBTFT6tS0DqIDh0cMolD1NIKdnFoKxRFMFQFq1OafgltfCQpUnETVyn4H1jBWXCwiFRwcXAQRAcR3Zw6KbhoeN6XVNoi3sfl/Ticc7lcwBtQGSv2AijplpFMxKS11Lrke4OHnlOqZrKooiwK/v276/PR9d5PiFlNu3YQ2U9cl84ul3aeAlN//V3Vn8maGv3f1EGNGRbgkYmVbYsJ3iUeMWgp4qrgvMvHgtMunzuelWSc+JZY0gpqhrhJLKc79HwHl4plrbWD2N6f1VeXxRzqUcxhEyYYilBRgQQF4X/8044/ji1yV2BQLo8CLMpESRETssTz0KFhEjJxCEHqkLhz634PrfvJbW3vFZhtcM4v2tpCAzidoZPV29p4BBgaAG7qTDVUR+qh9uZywPsJMJgChu8os2HmwiF3e38M6Hvh/GMM8B0CdpXzryPO7RqFn4Er/QcXKWq8UwZBywAAADhlWElmTU0AKgAAAAgAAYdpAAQAAAABAAAAGgAAAAAAAqACAAQAAAABAAAAZKADAAQAAAABAAAAZAAAAAAMc/x7AAAPo0lEQVR4Ae1dCXgURRZ+SUhCXMglhkvOAOuCIHKjIIqCyCUgt1ziCgl3UHTjEtlwiYIKbLgFF4JGUbkFjVyeIHJEVO4jIAk3JgEC5Nz/zUz39DUznUmHDLHr+zpdx6tXr99f9ep1VaeGyAymBkwNmBowNWBqwNSAqQFTA6YGSrwGvEryE16/fv2h3Nzcnl5eXu3y8/Or4lnL4bqK9Bnct3p7e39cpkyZXzxJByUSkPT09FoA4G0ovLszZYMmH+B8AdBGh4SEJDujvVNlJQ4QgPEMlJwABQbpVSJwyUCdAYGBgRv01ikqOu+iYlwcfBkMtMtK1Q0GywkwAvPy8j4/duxYT04XZ/ApzsaNbJvNFBSbiCvAHb6o5+Pv7985ODh4K0KKOzyMqFNiTFZaWtpqrTkjPf0Gfbh8K+3ZfYTS/rxOIaFlqFGTOtSzz2NUvkKISoenT5/eW79+/WdRUCyglIgRwt4U5oHZ6OWyDnYg6QRNfO0D+v3XU5SZeZvy8vIp88ZtOnEslbZ8tZdq16lMFSqGykAJCgqqeP78+dSkpKQDKMiWFd6BhCFzCCsEJmNKRkbGLtxTcWXhOof0blzTuLwon8Xm2srAyEjPpFkzPqX0tOuaTd+8mYXyVapyBrVPHwwfosaaFYs4s1CAQOm12FRgQkzCc0yErM1xr4jLF1cFpJvieh0K2w9g1oG2RlE8D9pqp+S7cvkWi4ni/PIhXjQ70pu+fsuH5o70pgq2QcGgJazcrqxKdevWbQSPi99bglWFRZzhNiAAg93LPVp2Wykz6Lj3dsWNgemiLC9sGuaKlScLe38+Iqaj+3rRQ+FeVAoGun4NL3q1j/2xd+86LNIJEbyTVNmxY8foSpUq1RTy7tTdLlkBWmQwQO6OexnE7uWhQ4d6FKA5PaT3KYn+xAQuhHrVZNaMHqxuT1+9cs0ytwi0wr1WrVrNEhMT527atMlfyLsT9wIDwmYKPT0Bl1sOAUaUb1hY2MqpU6c2M+IBbSNOJUtISBmR/cEz+WKcI7+dsqfRQShu9lpNUKpWrfpozZo1v7qToNi7ikxkxwmD3Us2X+cct+a8BLI0AsDfgupvSsoxEXGUfOq8JTsI2Ewa6G0ZGQzGjI/z6GKavMZTTzemUeO6kbe3WiWpqanfnDx58umOHTveltdSp65du9YGJnQkrlYoLYeOewHXt0gvxLz0nbqGPEfdurxclrIt1u1HA7J67F7OfFPbowkI8KPoN/pTw0a1ZLwgYH5kZGTURx99tAQFmbJCHYnMzMwq2dnZuyBKJSX5pg0/0cI416sg/v6+dPu23bN9qn0jGhXV3S1Q8DilAcZcyPKSUh5O8/PiNh+gjIHMeVo0nFcgk2W0ezlo0KC2kKGJI+Ec5V+5ciUwJydnoxYY+/YcoyULvhCr+vqqrJmlLBgmLWbyQHqms91ybkncR3HvrdE0X5jg2zgyX+gc9wMMHqmaYHCDkJXDyJSUlPctAjj4UyBAwNBQ9zI8PPwByFUZV6AD+VTZ6Gil/Pz8VqGggbLwdPIFenv6J5Sba+2A4bUr0cKl46ljl+ZU7r4gKgVw+M7puEVjqEHDmhQxqkuBQGncuPEpzKMpuHIwf13FtRsjdS9kYRffZShbtuyQuXPnMnAyKyNU1MwUCpV3CJEKUCpK818cOJMuXUy3ZLGvz+6lEPafyKfxC6zKYUUsWzlBKLLcMaHmbt68OQEj5R08VJKs0EECCliEomHK4qtXMmjCuEWiLGHlg2nWnAjikeAqsDVhE7d5426R1Jn5EoncjBw5cmRn06ZNx6D6HiWLAo0QVHbbvUxPu6FsG7ba26dTp04DDh48uAhDPkxFoMgAGIyoCoxbt7Jocky8CEbAPf40MXaALjC4CXSyAo0UhViqZFZWNs2bs456doml+A++VpVXqVLl78isjUulT92AQBnsEanope7loT/s7iRLIXUvfXy8iRWnFcqXL98sKyvrd3hNKpMo0AOwnujJM4S0cGe3lZdATp6wOmul8PYXHdOPqtfghQL9wShQLl9Kp+iX36evNv1MDMz6tT+qhIDJLWvLrKMsVClYScBp7plQxloIraJ/uBEDbQ2vL8sjNlPZuUT7j1vdS6GMwRg3Yp5lYU/Ik959fX3ZRfzy0qVL76AtX2kZTGULOBQrtNrnCXz3Tvvb9rARnVQenZSXs3hhQfn912QaP3oBHTuaIjbTsXNzMS5E0Pmu2eKqEWI3+AK15A7F+KBnLkbWUEm2GOWl7ckT4yHAWTHPVYQn1sEvtKeuPR6xmAoteswnhwAQC81oh0AO3mpVybr28x9o2eLNIos+/Z+g5wc/KabdjaA5zTll4ND2lBC/TXMpP2nfcVo0fyPlcG9EYIswYMhT9Fzvx1Ri2OaQ/6KAidlBEYPqIcUSRNAzF0APEdI8Ic4ezdRJK+nC+T+FLM07T6rsWq5f/SPduHFLpOH3knETnqPQUGH0ikW6Ij//dISm/edDuKhWp6FVm/o0Ibq3Q5B1MZUQ8VI9v8HzMr0QlO8tQj6byZwcKxCcx8/82r/7Ur361QUS8c6dKzY2dvK7777Li203ca0VCxHRdtJRgJHxGOrGafVM9vVjJ64QV1O58/bo1ZpqhFckXkPKys6h0HsD6fEnG0KwftSkWR1q80QDOnrkLLGN5XD+3FXavvUXqlY9jCpVvteSp/cP72fExqwQe2PdB6vh5bMfsWKMCvxMTZs/QJcvZ4jzk+BOK9tg8ITAeyxT3xpKjuYw7LMkDh8+fKuNPhX3P4S6fHc4QjA6PoFQvaXEHN+wdictXbRZ7JmlS/vRy//qRc1b/kNJqkrzA61K2EEff7id8m0PwQ/eqWsLGvpSB8t7gqqSIuPihTR6ZexCsTPwrt+suREUFKRaPVHUdC/Jyh4bOY9OJ1uXYXgpn1eP62GB8hDWyKYn5NH5q1beVaqF0XtxkeTnJ5sCxYYPHDiwrW3btksxhwgIbkHhJZEAEdUkLSnktRhZYHvNk6hgJlgZM+cM1wUGM2K72m9AW5ry5hDLCOI8ttcb1+2kV6MWU2rKFc5yGG5i14/NJG/FcigbeA/FThtcZGBwG7y2lZnJlsUanC3ls3xaYMAhyV2/fv3/WrVq9b4EjKPgKAODWyhlbUbzr8qObP7C/uJU78Hq9C+YCXd6ZoOG4TRnwUiaM2u1ZYLk1o8fS6GokfMoYnRX7HnXVu2DN4Q3l3L2krhgyM7BaxP7UqX7y8mEZ79/9affiW/rskIHCe4obHIHvtBOk0LvUr7WuxY6b/706dOnzZw50+4KEp1AQ/u0GnNmslJgTmQLd/yw6zA5t233MA2L7KTLxGg1KuTx6ODJfvkHieJ8wGX+/n5Y9NN+Z+FyNnNsJh97XLV6Qj06T5LxYno9gQFevTFWk1S6GsE7jrzJJQR278cvtDoW94UF09L4V4Qiy/3mzZvpeM+KtGUy4X5cPDo0gzOT9Z2yBvegzzZMohFjuhYaDObNin32uUdp5nvDZRO7MzC4Xs/erTXB4DLB7eR4QYKzevyVihB4znD0rtW0Ob+AywOcI8Es8byxHZdDMLimQ5MFZc1DD+6Nu707cI0iCLwIOHv+SIoatYBS/rDKr5w8+aXzus2U34Ct1hO2t/J3SfbE96558SdD327/hfjDCJ7AhfU5KXN2dfsPfFKaZYkfPXr0N1smN3RRRaDIcDhCbJsp8xX0RZZkby1LYqaUk+fkIXZRtfbBi0wwMGbnJfqN5ykoWHuhksGYEN2HAoPukYmBDp2fkJCw05Zp9URkFOqE/SnVZcSbKXB/lzJjjWLDswozeRoujIJhw0bhNG/xGIdL+fUfqqGoQZScnLw3Pj5eeM+4oCLQyHBospgW1oonoX9is/9iixYtojXqG5rFC5XCUj4vVEonT+lCJffI4gg8Anj/hC9XAe5tZlRU1AoJ3RlJ3GHU6QgRagEMmbcl5Bt9L8zkabQsheWH7e7L2MwSfPKz4KfYxdduwekIkVRpLYlbop8mfEPr1vxAebn6rZm3D7yq7o9Sr35tlOws6cJMnpoMizEzNDS0akxMzBvdunVLxBc2vbARp0saXSMEU0gVJTde/uAv/67D9dF7MT3XcxTcnTwd8fOEfHy43X7JkiVz9MqiCxDMJarFmWwsILoTXNVzZ/J0R447WQfO0ZC4uLhhaNPlK4Rek+VU/vVTXOPaNcb6NuuUka2wIJOnHn6eQNOyZcsXIAcvl6j20aXyGQJI2QCXwEvbvGviRq6LVa5cmb+w4Q23M7gcviC67tp3jfqMF3TN598XaJGSJeAtBq6nDKVLlw605TEoDoMJiEPVGLsuhi9sBF2r9tGlIhhisqQMS2q84XTXjlLS62P1PH5pZ0QCas5ozDJjNeB0wjUBMVbZheZmAlJoFRrLwATEWH0WmpsJSKFVaCwDExBj9Vlobh7h9i5fmkhrPvte/LxIz1OxW9+9Zysa/GJ7PeR3DY1HjBDLMr7tk1C9muNvw7heSQseAYizLz6cKdzdes54FneZR5gsqRJ6v+36W4BVrxbPFq5UzqKKe8QIKaqHuxv5moB4GGomICYgHqYBDxPHHCEmIB6mAQ8TxxwhJiAepgEPE8ccISYgHqYBDxPHHCEmIB6mAQ8TxxwhJiAepgEPE8ccISYgHqYBDxPHHCEmIB6mAQ8TxxwhJiAepgEPE8fpCME5HW343CwPk/muFSciIqKmK+E1AcF/3Zbi83Fx34F/+FQdYuaKqVmurYEZM2ZM2bZt2yDo1eG/JGgCAjD4gEb+r1EzGKgBfG3p1aRJkw443D/OEVsVIGymMCo0D750xMTML5gG8OuikdOmTeuvVUsFCIbTSC1CM884DaDDe3Xo0IH1/LCSq8qWYRI/B3rZsdDu/HuwsqG/atrR8YH4RYW0ChUqjIBevsQlnrWrGiEotP1kll2FfFy2oyNS7VRmTEsDrDet48bxI5bC97Cy41y1ALmsZNy12yOWE0WV+WbatQZ4hLD+lOHWrVsZtjzZjxBomSz+fam+SgZm2lgNHD58+IdmzZrNA1c+c0R819MaIXMwses/c8lYOf8y3PBTT8LvWNySPrQKEPz06C4QLJASmXFjNbBv377E2bNnC6eTys49UQHCTeM4obF4H1lmrBgmN9YAg4EfsYmXaOO4JO78/Cag+GLr1q2H4gexHggICAiWnNch5WHGnWgA/3qXh8OU0/BjYIdWrFjxNX5/ShgZXIvj9p9fQEI1qTOVJHB5Y1xOT7CR0JtR/RpgMPj8LNl87QoQgT2fYMOg8D0Al956IDWDTQOseD4Kmk+KZjBUrxfIM4OpAVMDpgZMDZgaMDVgasDUgKmBv4IG/g+7FFWgg5nEzgAAAABJRU5ErkJggg==;" vertex="1" parent="1">
          <mxGeometry x="1407.5" y="-860" width="30" height="30" as="geometry" />
        </mxCell>
      </root>
    </mxGraphModel>
  </diagram>
</mxfile>
